<?xml version="1.0" encoding="utf-8"?>
<!-- Generator: Adobe Illustrator 23.0.2, SVG Export Plug-In . SVG Version: 6.00 Build 0)  -->
<svg version="1.1" id="Layer_1" xmlns="http://www.w3.org/2000/svg" xmlns:xlink="http://www.w3.org/1999/xlink" x="0px" y="0px"
	 viewBox="0 0 61.1 61.1" style="enable-background:new 0 0 61.1 61.1;" xml:space="preserve">
<style type="text/css">
	.st0{fill:#656565;}
</style>
<title>Artboard 1</title>
<path class="st0" d="M47.2,18c-0.7-1.8-2.2-3.3-4-4c-1.3-0.5-2.6-0.7-4-0.7c-2.2-0.1-2.9-0.1-8.6-0.1s-6.4,0-8.6,0.1
	c-1.4,0-2.7,0.3-4,0.7c-1.8,0.7-3.3,2.2-4,4c-0.5,1.3-0.7,2.6-0.7,3.9c-0.1,2.2-0.1,2.9-0.1,8.6s0,6.3,0.1,8.6
	c0,1.3,0.3,2.7,0.7,3.9c0.3,0.9,0.9,1.8,1.6,2.4c0.7,0.7,1.5,1.2,2.4,1.6c1.3,0.5,2.6,0.7,4,0.7c2.2,0.1,2.9,0.1,8.6,0.1
	s6.3,0,8.6-0.1c1.3,0,2.7-0.3,4-0.7c0.9-0.3,1.8-0.9,2.4-1.6c0.7-0.7,1.3-1.5,1.6-2.4c0.5-1.3,0.7-2.6,0.7-4
	c0.1-2.2,0.1-2.9,0.1-8.6s0-6.4-0.1-8.6C47.9,20.6,47.6,19.3,47.2,18z M30.6,41.4c-6,0-10.9-4.9-10.9-10.9s4.9-10.9,10.9-10.9
	c6,0,10.9,4.9,10.9,10.9C41.5,36.5,36.6,41.4,30.6,41.4z M41.9,21.7c-1.4,0-2.5-1.1-2.5-2.5s1.1-2.6,2.5-2.6c1.4,0,2.5,1.1,2.5,2.5
	c0,0,0,0,0,0C44.5,20.6,43.3,21.7,41.9,21.7z"/>
<ellipse class="st0" cx="30.6" cy="30.5" rx="7.1" ry="7.1"/>
<path class="st0" d="M53.5,0H7.6C3.4,0,0,3.4,0,7.6v45.8C0,57.6,3.4,61,7.6,61h45.9c4.2,0,7.6-3.4,7.6-7.6V7.6
	C61.1,3.4,57.7,0,53.5,0z M51.7,39.3c0,1.8-0.4,3.5-1,5.2c-1.1,2.9-3.4,5.1-6.2,6.2c-1.7,0.6-3.4,1-5.2,1c-2.3,0.1-3,0.1-8.8,0.1
	s-6.5,0-8.8-0.1c-1.8,0-3.5-0.4-5.2-1c-2.9-1.1-5.1-3.4-6.2-6.2c-0.6-1.6-1-3.4-1-5.2c-0.1-2.3-0.1-3-0.1-8.8s0-6.5,0.1-8.8
	c0-1.8,0.4-3.5,1-5.2c0.5-1.4,1.4-2.7,2.4-3.8c1.1-1.1,2.4-1.9,3.8-2.4c1.7-0.6,3.4-1,5.2-1c2.3-0.1,3-0.1,8.8-0.1s6.5,0,8.8,0.1
	c1.8,0,3.5,0.4,5.2,1c1.4,0.5,2.7,1.4,3.8,2.4c1.1,1.1,1.9,2.4,2.5,3.8c0.6,1.6,1,3.4,1,5.2c0.1,2.3,0.1,3,0.1,8.8
	S51.8,37,51.7,39.3z"/>
</svg>
