<?xml version="1.0" encoding="utf-8"?>
<!-- Generator: Adobe Illustrator 22.1.0, SVG Export Plug-In . SVG Version: 6.00 Build 0)  -->
<svg version="1.1" id="icons" xmlns="http://www.w3.org/2000/svg" xmlns:xlink="http://www.w3.org/1999/xlink" x="0px" y="0px"
	 viewBox="0 0 61.1 61.1" style="enable-background:new 0 0 61.1 61.1;" xml:space="preserve">
<style type="text/css">
	.st0{fill:#656565;}
</style>
<title>header_twitter</title>
<path class="st0" d="M53.5,0H7.6C3.4,0,0,3.4,0,7.6v45.9c0,4.2,3.4,7.6,7.6,7.6h45.9c4.2,0,7.6-3.4,7.6-7.6V7.6
	C61.1,3.4,57.7,0,53.5,0z M45.8,22.8c0,0.3,0,0.7,0,1c0,10.4-7.9,22.3-22.3,22.3c-4.3,0-8.4-1.2-12-3.5c0.6,0.1,1.2,0.1,1.9,0.1
	c3.5,0,7-1.2,9.7-3.4c-3.4-0.1-6.3-2.2-7.3-5.4c1.2,0.2,2.4,0.2,3.5-0.1C15.6,33,13,29.8,13,26.1c0,0,0-0.1,0-0.1
	c1.1,0.6,2.3,1,3.5,1c-3.4-2.3-4.5-6.9-2.4-10.5c4,4.9,9.9,7.9,16.2,8.2c-1-4.2,1.6-8.4,5.8-9.4c2.7-0.6,5.6,0.2,7.5,2.3
	c1.8-0.3,3.5-1,5-1.9c-0.6,1.8-1.8,3.4-3.5,4.3c1.6-0.2,3.1-0.6,4.5-1.2C48.6,20.3,47.3,21.7,45.8,22.8z"/>
</svg>
