<?xml version="1.0" encoding="utf-8"?>
<!-- Generator: Adobe Illustrator 27.3.1, SVG Export Plug-In . SVG Version: 6.00 Build 0)  -->
<svg version="1.1" id="Layer_1" xmlns="http://www.w3.org/2000/svg" xmlns:xlink="http://www.w3.org/1999/xlink" x="0px" y="0px"
	 viewBox="0 0 61.3 61.3" style="enable-background:new 0 0 61.3 61.3;" xml:space="preserve">
<style type="text/css">
	.st0{fill:#656565;}
</style>
<path class="st0" d="M53.7,0h-46C3.4,0,0,3.4,0,7.7v46c0,4.2,3.4,7.7,7.7,7.7h46c4.2,0,7.7-3.4,7.7-7.7v-46C61.3,3.4,57.9,0,53.7,0
	L53.7,0z M53.5,25.2c-3.7,0.4-6.8-0.8-10.5-3.1v13.6c0,17.3-18.9,22.7-26.5,10.3c-4.9-8-1.9-22,13.8-22.6v7.7
	c-1.2,0.2-2.5,0.5-3.6,0.9c-3.5,1.2-5.5,3.4-4.9,7.3c1.1,7.5,14.7,9.7,13.6-4.9V7.2h7.5c0.8,6.5,4.4,10.3,10.7,10.8V25.2z"/>
</svg>
