<?xml version="1.0" encoding="utf-8"?>
<!-- Generator: Adobe Illustrator 22.1.0, SVG Export Plug-In . SVG Version: 6.00 Build 0)  -->
<svg version="1.1" id="Layer_1" xmlns="http://www.w3.org/2000/svg" xmlns:xlink="http://www.w3.org/1999/xlink" x="0px" y="0px"
	 viewBox="0 0 61.1 61.1" style="enable-background:new 0 0 61.1 61.1;" xml:space="preserve">
<style type="text/css">
	.st0{display:none;fill:#656565;}
	.st1{fill:#656565;}
</style>
<path class="st0" d="M57.5-0.8H3.1c-1.9,0-3.4,1.5-3.4,3.4V57c0,1.9,1.5,3.4,3.4,3.4h29.3V36.7h-8v-9.2h8v-6.8
	c0-7.9,4.8-12.2,11.9-12.2c2.4,0,4.8,0.1,7.1,0.4v8.2h-4.9c-3.8,0-4.6,1.8-4.6,4.5v5.9H51l-1.2,9.2h-8v23.7h15.6
	c1.9,0,3.4-1.5,3.4-3.4V2.6C60.8,0.7,59.3-0.8,57.5-0.8z"/>
<path class="st1" d="M53.5,0H7.6C3.4,0,0,3.4,0,7.6v45.8c0,4.2,3.4,7.6,7.6,7.6h25.1v-24h-8.1v-9.3h8.1v-6.9c0-8,4.9-12.4,12-12.4
	c3.4,0,6.4,0.3,7.2,0.4v8.4l-4.9,0c-3.9,0-4.6,1.8-4.6,4.5v6h9.3l-1.2,9.3h-8v24h11.1c4.2,0,7.6-3.4,7.6-7.6V7.6
	C61.1,3.4,57.7,0,53.5,0z"/>
</svg>
