<?xml version="1.0" encoding="utf-8"?>
<!-- Generator: Adobe Illustrator 22.1.0, SVG Export Plug-In . SVG Version: 6.00 Build 0)  -->
<svg version="1.1" id="Layer_1" xmlns="http://www.w3.org/2000/svg" xmlns:xlink="http://www.w3.org/1999/xlink" x="0px" y="0px"
	 viewBox="0 0 86.2 86.2" style="enable-background:new 0 0 86.2 86.2;" xml:space="preserve">
<style type="text/css">
	.st0{display:none;fill:#656565;}
	.st1{fill:#656565;}
</style>
<path class="st0" d="M83.8,9.6c-1-3.7-3.9-6.6-7.6-7.6c-6.6-1.8-33.4-1.8-33.4-1.8S16,0.2,9.4,2C5.7,3,2.8,5.9,1.8,9.6
	C0,16.3,0,30.4,0,30.4s0,14,1.8,20.7c1,3.7,3.9,6.6,7.6,7.6c6.7,1.8,33.5,1.8,33.5,1.8s26.8,0,33.5-1.8c3.7-1,6.6-3.9,7.6-7.6
	c1.8-6.7,1.8-20.7,1.8-20.7S85.6,16.3,83.8,9.6z M34,43.1V17.6l22.4,12.7L34,43.1z"/>
<g>
	<path class="st1" d="M75.4,0H10.8C4.8,0,0,4.8,0,10.8v64.6c0,5.9,4.8,10.8,10.8,10.8h64.6c5.9,0,10.8-4.8,10.8-10.8V10.8
		C86.2,4.8,81.4,0,75.4,0z M72.2,57.8c-0.7,2.6-2.8,4.7-5.4,5.4c-4.7,1.3-23.8,1.3-23.8,1.3s-19,0-23.8-1.3
		c-2.6-0.7-4.7-2.8-5.4-5.4c-1.3-4.8-1.3-14.7-1.3-14.7s0-10,1.3-14.7c0.7-2.6,2.8-4.7,5.4-5.4c4.7-1.3,23.8-1.3,23.8-1.3
		s19,0,23.8,1.3c2.6,0.7,4.7,2.8,5.4,5.4c1.3,4.8,1.3,14.7,1.3,14.7S73.5,53.1,72.2,57.8z"/>
	<polygon class="st1" points="36.9,52.1 52.8,43.1 36.9,34 	"/>
</g>
</svg>
