<?xml version="1.0" encoding="utf-8"?>
<!-- Generator: Adobe Illustrator 22.1.0, SVG Export Plug-In . SVG Version: 6.00 Build 0)  -->
<svg version="1.1" id="Layer_1" xmlns="http://www.w3.org/2000/svg" xmlns:xlink="http://www.w3.org/1999/xlink" x="0px" y="0px"
	 viewBox="0 0 86.1 86.1" style="enable-background:new 0 0 86.1 86.1;" xml:space="preserve">
<style type="text/css">
	.st0{fill:#656565;}
</style>
<g>
	<path class="st0" d="M84.1,74.7L61.4,52c10.3-15.4,6.1-36.2-9.3-46.4c-13.3-8.9-31-7.1-42.3,4.2c-13.1,13-13.2,34.3-0.1,47.4
		C21,68.5,38.7,70.3,52,61.4l22.7,22.7c2.7,2.5,6.9,2.4,9.5-0.3C86.5,81.2,86.5,77.2,84.1,74.7L84.1,74.7z M49.4,49.4
		c-8.8,8.8-23.1,8.8-31.9,0s-8.8-23.1,0-31.9s23.1-8.8,31.9,0c0,0,0,0,0,0C58.2,26.3,58.2,40.6,49.4,49.4z"/>
</g>
</svg>
